<svg xmlns="http://www.w3.org/2000/svg" viewBox="0 0 1390.5067 90.718803" height="30" width="100%" id="marsvg" version="1.1"><defs id="defs6"><clipPath id="clipPath18" clipPathUnits="userSpaceOnUse"><path id="path16" d="M 0,68.039 H 1042.877 V 0 H 0 Z"></path></clipPath></defs><g transform="matrix(1.3333333,0,0,-1.3333333,0,90.7188)" id="g10"><g id="g12"><g clip-path="url(#clipPath18)" id="g14"><g transform="translate(478.8374,8.5598)" id="g20"><path id="path22" fill="#0276a4" d="m 0,0 v 20.645 c 0,4.379 1.756,8.572 4.868,11.625 L 16.075,43.264 V 0 Z"></path></g><g transform="translate(537.8031,68.0391)" id="g24"><path id="path26" fill="#0276a4" d="m 0,0 h -20.467 c -4.341,0 -8.497,-1.771 -11.524,-4.91 l -10.9,-11.305 H 0 Z"></path></g><path id="path28" fill="#00aed4" d="m 537.803,8.56 h -37.481 v 37.808 h 37.481 z"></path><g transform="translate(1011.1214,13.0952)" id="g30"><path id="path32" fill="#000000" d="m 0,0 h 21.877 c 5.995,0 9.878,4.384 9.878,9.477 V 24.928 H 22.378 V 13.183 c 0,-3.473 -2.901,-5.784 -5.786,-5.784 H -3.68 c -2.893,0 -5.797,2.159 -5.797,5.764 l -0.014,11.765 h -9.401 L -18.904,13.417 C -18.976,9.73 -21.605,7.399 -24.683,7.399 h -64.041 c -3.078,0 -5.723,2.51 -5.723,5.784 v 25.519 h -9.377 l -0.021,-25.539 c 0,-3.595 -3.013,-5.764 -5.851,-5.764 h -17.993 c -3.78,0 -5.785,3.195 -5.785,5.703 l -0.034,3.477 h -9.383 V 14.567 C -142.891,3.542 -133.796,0 -128.501,0 h 19.998 c 2.749,0 4.922,0.964 7.02,3.11 1.627,-1.578 3.508,-3.11 7.59,-3.11 h 74.995 c 4.836,0 8.845,3.532 9.458,8.448 C -8.781,4.25 -5.561,0 0,0"></path></g><path id="path34" fill="#000000" d="m 1033.498,0.001 h 9.379 v 8.616 h -9.379 z"></path><path id="path36" fill="#000000" d="m 1001.631,51.823 h -9.408 v -8.616 h 9.408 z"></path><g transform="translate(900.2673,40.8948)" id="g38"><path id="path40" fill="#000000" d="m 0,0 -6.5,-0.008 v 2.357 c 0,1.057 0.874,2.352 2.3,2.352 h 4.196 v 6.228 h -6.204 c -3.09,0 -6.216,-2.625 -6.216,-6.208 V 0 h -4.18 V -6.228 H 0 Z"></path></g><path id="path42" fill="#000000" d="m 840.235,13.095 h 9.408 v 38.702 h -9.408 z"></path><path id="path44" fill="#000000" d="m 771.487,0.001 h 9.408 v 8.616 h -9.408 z"></path><path id="path46" fill="#000000" d="m 767.632,8.617 h -9.408 V 0.001 h 9.408 z"></path><path id="path48" fill="#000000" d="m 580.259,51.823 h -9.408 v -8.616 h 9.408 z"></path><g transform="translate(608.5965,13.0952)" id="g50"><path id="path52" fill="#000000" d="m 0,0 h 172.21 c 4.554,0 9.497,3.692 9.497,9.477 v 15.451 h -9.408 V 13.183 c 0,-3.24 -2.502,-5.784 -5.79,-5.784 H 5.784 c -2.895,0 -5.776,2.319 -5.776,5.784 V 38.702 H -9.408 V 9.477 C -9.408,4.165 -5.066,0 0,0"></path></g><g transform="translate(575.2231,2e-4)" id="g54"><path id="path56" fill="#000000" d="M 0,0 C 10.724,0 19.345,8.351 19.345,18.967 V 38.022 H 9.935 V 18.237 c 0,-6.038 -4.818,-9.621 -9.74,-9.621 -5.531,0 -9.467,4.683 -9.467,9.621 v 11.438 h -9.407 V 18.967 C -18.679,7.308 -8.495,0 0,0"></path></g><g transform="translate(835.5449,51.7976)" id="g58"><path id="path60" fill="#000000" d="m 0,0 v -29.225 c 0,-5.173 -3.81,-9.533 -9.408,-9.533 l -10.649,0.026 c -1.844,0 -8.215,1.325 -9.093,8.896 v -2.785 c 0,-0.899 0.01,-3.145 0.01,-3.145 0,-6.271 -4.693,-16.032 -16.103,-16.032 v 8.619 h 0.922 c 3.422,0 5.784,2.854 5.784,5.784 v 23.619 h 9.336 l 0.061,-11.744 c 0,-3.34 2.648,-5.797 5.796,-5.797 h 8.152 c 2.54,0 5.782,2.133 5.782,5.717 l 0,25.6 z"></path></g><g transform="translate(313.9548,32.276)" id="g62"><path id="path64" fill="#000000" d="m 0,0 c 6.453,0.365 9.483,5.4 9.483,9.803 0,6.087 -5.219,9.722 -9.702,9.722 H -21.667 V -23.671 H 0.815 c 5.527,0 11.751,4.467 11.751,11.752 C 12.566,-4.852 6.694,0 0,0 m 2.32,6.264 c 0,-3.451 -2.855,-6.22 -6.22,-6.22 l -8.94,-0.012 v 12.435 l 8.527,0.046 c 3.635,0 6.633,-2.434 6.633,-6.249 m 1.133,-17.768 c 0,-2.612 -1.976,-5.109 -5.109,-5.109 H -12.84 v 10.218 h 11.184 c 2.027,0 5.109,-1.401 5.109,-5.109"></path></g><g transform="translate(54.7197,51.8005)" id="g66"><path id="path68" fill="#000000" d="m 0,0 h -8.826 v -43.194 h 27.38 v 7.284 L 0,-35.91 Z"></path></g><g transform="translate(98.6256,25.8811)" id="g70"><path id="path72" fill="#000000" d="m 0,0 c 7.709,1.174 12.189,6.158 12.189,13.4 0,7.302 -6.467,12.519 -12.973,12.519 h -20.232 v -43.194 h 8.827 V -0.01 h 6.983 l 9.331,-17.265 h 9.888 L 7.277,-5.379 C 5.725,-2.615 3.135,-0.898 0,0 M 3.078,12.829 C 3.078,9.287 0.36,6.567 -3.044,6.567 h -9.145 v 12.296 h 8.432 c 4.553,0 6.835,-2.916 6.835,-6.034"></path></g><g transform="translate(266.0726,15.8605)" id="g74"><path id="path76" fill="#000000" d="M 0,0 -12.119,35.94 H -25.978 V -7.254 h 8.828 V 28.884 L -5.01,-7.254 H 8.826 V 35.94 H 0 Z"></path></g><g transform="translate(29.225,51.8005)" id="g78"><path id="path80" fill="#000000" d="m 0,0 h -16.807 l -12.418,-43.194 h 9.184 l 2.933,10.204 H 0.301 l 2.933,-10.204 h 9.176 z m -15.077,-25.919 6.677,23.237 6.668,-23.237 z"></path></g><g transform="translate(146.2003,51.8005)" id="g82"><path id="path84" fill="#000000" d="m 0,0 h -16.807 l -12.418,-43.194 h 9.184 l 2.933,10.204 H 0.301 l 2.933,-10.204 h 9.176 z m -15.077,-25.919 6.675,23.237 6.67,-23.237 z"></path></g><g transform="translate(223.3503,51.8005)" id="g86"><path id="path88" fill="#000000" d="m 0,0 h -16.807 l -12.418,-43.194 h 9.184 l 2.933,10.204 H 0.301 l 2.933,-10.204 h 9.176 z m -15.077,-25.919 6.677,23.237 6.668,-23.237 z"></path></g><g transform="translate(315.651,32.276)" id="g90"><path id="path92" fill="#000000" d="m 0,0 c 6.453,0.365 9.483,5.4 9.483,9.803 0,6.087 -5.221,9.722 -9.702,9.722 h -23.143 v -43.196 h 22.481 c 5.527,0 11.749,4.467 11.749,11.752 C 10.868,-4.852 4.821,0 0,0 m 0.624,6.264 c 0,-3.451 -2.855,-6.22 -6.22,-6.22 l -8.94,-0.012 v 12.435 l 8.527,0.046 c 3.635,0 6.633,-2.434 6.633,-6.249 m 1.133,-17.768 c 0,-2.612 -1.976,-5.109 -5.109,-5.109 h -11.184 v 10.218 h 11.184 c 2.025,0 5.109,-1.401 5.109,-5.109"></path></g><g transform="translate(435.6953,25.8719)" id="g94"><path id="path96" fill="#000000" d="M 0,0 20.492,25.928 H 9.962 L -8.67,2.256 v 23.695 l -8.826,-0.023 V -17.266 H -8.67 V -1.799 L 8.308,-17.266 h 12.184 z"></path></g><g transform="translate(402.8186,15.8548)" id="g98"><path id="path100" fill="#000000" d="M 0,0 -12.121,35.946 H -25.978 V -7.248 h 8.826 V 28.89 L -5.01,-7.248 H 8.824 v 43.194 h -8.826 z"></path></g><g transform="translate(360.0955,51.8005)" id="g102"><path id="path104" fill="#000000" d="m 0,0 h -16.807 l -12.418,-43.194 h 9.184 l 2.933,10.204 H 0.301 l 2.933,-10.204 h 9.176 z m -15.077,-25.919 6.677,23.237 6.622,-23.237 z"></path></g><g transform="translate(185.467,51.7972)" id="g106"><path id="path108" fill="#000000" d="M 0,0 -6.71,-23.02 -17.846,0 h -9.04 l 12.057,-25.915 h 7.248 l -4.835,-17.273 h 9.194 L 9.165,0 Z"></path></g></g></g></g></svg>